<?xml version="1.0" encoding="utf-8"?>
<svg width="677px" height="285px" viewBox="0 0 677 285" version="1.1" xmlns:xlink="http://www.w3.org/1999/xlink" xmlns="http://www.w3.org/2000/svg">
  <defs>
    <rect width="677" height="284.7" id="artboard_1" />
    <clipPath id="clip_1">
      <use xlink:href="#artboard_1" clip-rule="evenodd" />
    </clipPath>
  </defs>
  <g id="logo" clip-path="url(#clip_1)">
    <g id="light" transform="translate(20.23999 14.389999)">
      <g id="Ebene_2-2">
        <path d="M0 45.47L19.48 44.25C19.6863 46.8456 20.5765 49.3402 22.06 51.48C24.1733 54.1467 27.1733 55.48 31.06 55.48C33.4889 55.639 35.8925 54.9065 37.82 53.42C39.2921 52.2714 40.1638 50.517 40.19 48.65C40.1641 46.8767 39.364 45.2034 38 44.07C36.4867 42.7367 32.99 41.4567 27.51 40.23C18.53 38.23 12.1267 35.5633 8.3 32.23C4.50072 29.0644 2.36002 24.3335 2.49 19.39C2.50971 15.9468 3.55408 12.5875 5.49001 9.73999C7.68249 6.52962 10.7806 4.04418 14.39 2.6C18.3233 0.866668 23.7433 0 30.65 0C39.11 0 45.56 1.57333 50 4.72C54.44 7.86667 57.0867 12.8667 57.94 19.72L38.64 20.85C38.12 17.85 37.05 15.7 35.4 14.34C33.4371 12.8984 31.0308 12.1907 28.6 12.34C26.6854 12.1996 24.782 12.7339 23.22 13.85C22.0813 14.7352 21.4166 16.0977 21.42 17.54C21.4548 18.6678 22.0037 19.7178 22.91 20.39C23.87 21.2567 26.16 22.07 29.78 22.83C38.74 24.7633 45.1467 26.7133 49 28.68C52.4584 30.2705 55.3952 32.8086 57.47 36C59.2479 38.9565 60.1657 42.3504 60.12 45.8C60.1412 49.9841 58.912 54.0792 56.59 57.56C54.1858 61.1918 50.7577 64.0283 46.74 65.71C42.52 67.57 37.1867 68.4967 30.74 68.49C19.4733 68.49 11.67 66.3233 7.33001 61.99C2.96563 57.5534 0.360853 51.6829 0 45.47L0 45.47Z" id="Shape" fill="#FFFFFF" fill-rule="evenodd" stroke="none" />
        <path d="M0 0L20.49 0L20.49 23.19L42.86 23.19L42.86 0L63.43 0L63.43 66.26L42.85 66.26L42.85 39.46L20.49 39.46L20.49 66.26L0 66.26L0 0Z" transform="translate(70.51 1.13)" id="Shape" fill="#FFFFFF" fill-rule="evenodd" stroke="none" />
        <path d="M0 0L20.52 0L20.52 66.26L0 66.26L0 0Z" transform="translate(148.35 1.13)" id="Shape" fill="#FFFFFF" fill-rule="evenodd" stroke="none" />
        <path d="M0 45.47L19.48 44.25C19.6863 46.8456 20.5765 49.3402 22.06 51.48C24.1667 54.1467 27.1667 55.48 31.06 55.48C33.489 55.639 35.8925 54.9065 37.82 53.42C39.2921 52.2714 40.1638 50.517 40.19 48.65C40.1641 46.8767 39.364 45.2034 38 44.07C36.4867 42.7367 32.99 41.4567 27.51 40.23C18.53 38.23 12.1267 35.5633 8.29999 32.23C4.52585 29.0696 2.39804 24.3612 2.51999 19.44C2.53978 15.9964 3.58421 12.6371 5.5202 9.78969C7.71266 6.57947 10.8107 4.09414 14.42 2.65001C18.3267 0.883335 23.7333 0 30.64 0C39.1 0 45.5533 1.57333 50 4.72C54.4467 7.86667 57.0933 12.8667 57.94 19.72L38.64 20.85C38.12 17.85 37.05 15.7 35.4 14.34C33.4371 12.8984 31.0308 12.1907 28.6 12.34C26.6854 12.1996 24.782 12.7339 23.22 13.85C22.0787 14.7341 21.4105 16.0963 21.41 17.54C21.4486 18.6692 22.0011 19.7189 22.91 20.39C23.87 21.2567 26.16 22.07 29.78 22.83C38.7267 24.7633 45.1366 26.7133 49.01 28.68C52.461 30.2737 55.3905 32.8115 57.46 36C59.2379 38.9565 60.1557 42.3504 60.11 45.8C60.1312 49.9841 58.902 54.0792 56.58 57.56C54.1758 61.1918 50.7477 64.0283 46.73 65.71C42.51 67.57 37.1767 68.4967 30.73 68.49C19.4633 68.49 11.66 66.3233 7.31999 61.99C2.95927 57.5519 0.358139 51.6816 0 45.47L0 45.47Z" transform="translate(180 0)" id="Shape" fill="#FFFFFF" fill-rule="evenodd" stroke="none" />
        <path d="M0 0L20.5 0L20.5 23.19L42.87 23.19L42.87 0L63.44 0L63.44 66.26L42.85 66.26L42.85 39.46L20.5 39.46L20.5 66.26L0 66.26L0 0Z" transform="translate(250.5 1.13)" id="Shape" fill="#FFFFFF" fill-rule="evenodd" stroke="none" />
        <path d="M47.38 55.33L24.12 55.33L20.89 66.26L0 66.26L24.91 0L47.24 0L72.12 66.26L50.7 66.26L47.38 55.33ZM43.12 41L35.82 17.18L28.59 41L43.12 41Z" transform="translate(320.88 1.13)" id="Shape" fill="#FFFFFF" fill-rule="evenodd" stroke="none" />
        <path d="M0 0L19.45 0L26.45 37.1L36.7 0L56.08 0L66.35 37.05L73.35 0.050003L92.71 0.050003L78.1 66.26L58 66.26L46.4 24.54L34.82 66.26L14.74 66.26L0 0Z" transform="translate(0 84.58)" id="Shape" fill="#FFFFFF" fill-rule="evenodd" stroke="none" />
        <path d="M0 0L20.52 0L20.52 66.26L0 66.26L0 0Z" transform="translate(100.21 84.58)" id="Shape" fill="#FFFFFF" fill-rule="evenodd" stroke="none" />
        <path d="M0 0L62.23 0L62.23 16.36L41.35 16.36L41.35 66.26L20.88 66.26L20.88 16.36L0 16.36L0 0Z" transform="translate(130.77 84.58)" id="Shape" fill="#FFFFFF" fill-rule="evenodd" stroke="none" />
        <path d="M0 0L20.48 0L20.48 23.19L42.86 23.19L42.86 0L63.42 0L63.42 66.26L42.86 66.26L42.86 39.42L20.48 39.42L20.48 66.22L0 66.22L0 0Z" transform="translate(202.36 84.58)" id="Shape" fill="#FFFFFF" fill-rule="evenodd" stroke="none" />
        <path d="M0.0933838 0L66.9733 0.0933838L66.8799 66.9733L0 66.8799L0.0933838 0Z" transform="translate(420.84665 150.05754)" id="Rectangle" fill="#EA5469" fill-rule="evenodd" stroke="none" />
        <path d="M33.9341 0L91.5658 33.9341L57.6317 91.5658L0 57.6317L33.9341 0Z" transform="translate(449.97894 12.540817)" id="Rectangle" fill="#EA5469" fill-rule="evenodd" stroke="none" />
        <path d="M0 27.7665L60.8437 0L88.6102 60.8437L27.7665 88.6102L0 27.7665Z" transform="translate(547.38654 107.00744)" id="Rectangle" fill="#EA5469" fill-rule="evenodd" stroke="none" />
        <path d="M92.71 66.26L73.26 66.26L66.26 29.17L56.01 66.26L36.63 66.26L26.36 29.26L19.36 66.26L0 66.26L14.61 0L34.69 0L46.31 41.72L57.89 0L77.97 0L92.71 66.26Z" transform="translate(251.58 150.37)" id="Shape" fill="#FFFFFF" fill-rule="evenodd" stroke="none" />
        <g fill="#FFFFFF" stroke="none" id="E." transform="translate(348.8 124.27)">
          <path d="M61.6079 32.3683L6.73483 32.3683L6.73483 98.6317L62.6023 98.6317L62.6023 83.6253L27.2557 83.6253L27.2557 70.5624L59.1219 70.5624L59.1219 57.0476L27.2557 57.0476L27.2557 46.5159L61.6079 46.5159L61.6079 32.3683ZM92.118 80.1901L72.4559 80.1901L72.4559 98.6317L92.118 98.6317L92.118 80.1901Z" />
        </g>
      </g>
    </g>
  </g>
</svg>