<?xml version="1.0" encoding="UTF-8"?>
<svg width="34px" height="38px" viewBox="0 0 34 38" version="1.1" xmlns="http://www.w3.org/2000/svg" xmlns:xlink="http://www.w3.org/1999/xlink">
    <title>Icon Account</title>
    <g id="App-Design" stroke="none" stroke-width="1" fill="none" fill-rule="evenodd">
        <g id="Karte" transform="translate(-200.000000, -223.000000)" fill="#FFFFFF">
            <g id="Icon-Account" transform="translate(200.000000, 223.229048)">
                <path d="M30.2222226,35.15 L30.2222226,31.45 C30.2222226,28.3848084 27.68518,25.9 24.5555548,25.9 L9.4444452,25.9 C6.31481932,25.9 3.77777774,28.3848084 3.77777774,31.45 L3.77777774,35.15 C3.77777774,36.1717121 2.93202046,37 1.8888889,37 C0.845757412,37 0,36.1717121 0,35.15 L0,31.45 C0,26.3413848 4.22832568,22.2 9.4444452,22.2 L24.5555548,22.2 C29.771675,22.2 34,26.3413848 34,31.45 L34,35.15 C34,36.1717121 33.1542432,37 32.111113,37 C31.0679794,37 30.2222226,36.1717121 30.2222226,35.15 L30.2222226,35.15 Z M7.55555556,9.25 C7.55555556,4.14138484 11.7838815,0 17,0 C22.2161194,0 26.4444444,4.14138484 26.4444444,9.25 C26.4444444,14.358615 22.2161194,18.5 17,18.5 C11.7838815,18.5 7.55555556,14.358615 7.55555556,9.25 L7.55555556,9.25 Z M11.3333333,9.25 C11.3333333,12.3151921 13.8703749,14.8 17,14.8 C20.1296255,14.8 22.6666667,12.3151921 22.6666667,9.25 C22.6666667,6.18480837 20.1296255,3.7 17,3.7 C13.8703749,3.7 11.3333333,6.18480837 11.3333333,9.25 L11.3333333,9.25 Z" id="Form_6"></path>
            </g>
        </g>
    </g>
</svg>