<?xml version="1.0" encoding="UTF-8"?>
<svg width="37px" height="38px" viewBox="0 0 37 38" version="1.1" xmlns="http://www.w3.org/2000/svg" xmlns:xlink="http://www.w3.org/1999/xlink">
    <title>Icon Cart</title>
    <g id="App-Design" stroke="none" stroke-width="1" fill="none" fill-rule="evenodd">
        <g id="Karte" transform="translate(-296.000000, -449.000000)" fill="#FFFFFF">
            <g id="Icon-Cart" transform="translate(296.000000, 449.500000)">
                <path d="M26.1084025,32.3734471 C26.1185649,29.8317765 28.1854747,27.7786988 30.7270041,27.7854738 C33.2687214,27.7922487 35.324717,29.8563355 35.3213285,32.398006 C35.3179415,34.9396764 33.2564895,36.9983526 30.7149599,36.9984471 C29.4907726,36.9960007 28.3177734,36.5073606 27.4537852,35.6400319 C26.5899852,34.7726563 26.105956,33.597634 26.1084025,32.3734471 L26.1084025,32.3734471 Z M29.1793155,32.3734475 C29.1793155,33.224874 29.8696028,33.9151142 30.7209821,33.9151142 C31.5723616,33.9151142 32.2626489,33.224874 32.2626489,32.3734475 C32.2626489,31.5220211 31.5723616,30.8317809 30.7209821,30.8317809 C30.3118534,30.8314045 29.9192854,30.9936258 29.6298465,31.2827824 C29.3404076,31.571939 29.17781,31.9643187 29.17781,32.3734475 L29.1793155,32.3734475 Z M7.68236288,32.3734471 C7.69252523,29.8317765 9.7594351,27.7786988 12.3009645,27.7854738 C14.8426818,27.7922487 16.8986774,29.8563355 16.8952889,32.398006 C16.8919018,34.9396764 14.8304499,36.9983526 12.2889203,36.9984471 C11.064733,36.9964239 9.89135748,36.5079253 9.02736919,35.6405023 C8.16338097,34.7730328 7.67954,33.5977752 7.68236288,32.3734471 L7.68236288,32.3734471 Z M10.7532754,32.3734475 C10.7532754,33.224874 11.4435627,33.9151142 12.294942,33.9151142 C13.1463215,33.9151142 13.8366088,33.224874 13.8366088,32.3734475 C13.8366088,31.5220211 13.1463215,30.8317809 12.294942,30.8317809 C11.8858133,30.8314045 11.4932453,30.9936258 11.2038064,31.2827824 C10.9143675,31.571939 10.7517699,31.9643187 10.7517699,32.3734475 L10.7532754,32.3734475 Z M29.6710606,26.2067805 L13.4542024,26.2067805 C11.1228836,26.2228255 9.14611814,24.4967778 8.84764578,22.1845583 L6.51350357,4.42302344 C6.412633,3.66056449 5.76544155,3.08897927 4.99630225,3.08333339 L1.54166668,3.08333339 C0.690287244,3.08333339 0,2.39309317 0,1.54166669 C0,0.690240221 0.690287244,0 1.54166668,0 L4.99968924,0 C7.31331893,0.00724538156 9.26373677,1.72750609 9.55995163,4.02222197 L10.0439811,7.70682779 L35.3273502,7.70682779 C35.7893602,7.70861552 36.2261543,7.91741454 36.5174745,8.2757786 C36.8089849,8.63414266 36.9243482,9.10429242 36.8319447,9.55684717 L34.2527773,22.4898996 C33.8340484,24.6418725 31.9555204,26.1997711 29.7632727,26.2130848 L29.6710606,26.2067805 Z M29.7019247,23.1234472 C30.4490454,23.1375618 31.0986827,22.6139184 31.2435898,21.8808176 L33.4559729,10.7901142 L10.4559327,10.7901142 L11.9004923,21.7837576 C12.002304,22.555485 12.6636097,23.1301283 13.442159,23.1234472 L29.7019247,23.1234472 Z" id="Form_20"></path>
            </g>
        </g>
    </g>
</svg>