<?xml version="1.0" encoding="UTF-8"?>
<svg width="37px" height="42px" viewBox="0 0 37 42" version="1.1" xmlns="http://www.w3.org/2000/svg" xmlns:xlink="http://www.w3.org/1999/xlink">
    <title>Shisha Bar Symbol</title>
    <g id="App-Design" stroke="none" stroke-width="1" fill="none" fill-rule="evenodd">
        <g id="Karte" transform="translate(-144.000000, -506.000000)" fill="#F4F4F7" fill-rule="nonzero">
            <g id="Shisha-Bar-Symbol" transform="translate(144.000000, 506.000000)">
                <path d="M12.6917379,33.8213115 C12.5230769,33.6295082 12.7128205,32.5639344 13.408547,29.942623 C13.9145299,27.9393443 14.3361823,26.1491803 14.3361823,25.957377 C14.3361823,25.6163934 14.0831909,25.5737705 12.1225071,25.5737705 C10.1407407,25.5737705 9.90883191,25.5311475 9.6980057,25.147541 C9.21310541,24.2098361 10.2672365,22.1 11.7219373,21.1409836 C12.2490028,20.7786885 12.797151,20.4377049 12.9025641,20.4163934 C13.0501425,20.352459 13.0501425,20.1606557 12.8603989,19.8409836 C12.4809117,19.095082 12.6917379,16.9639344 13.2188034,16.2393443 L13.6404558,15.6639344 L13.1766382,14.3852459 C12.9236467,13.6819672 12.6495726,12.8508197 12.5652422,12.5311475 L12.4387464,11.9344262 L17.0136752,11.9344262 L21.6096866,11.9344262 L23.2962963,13.404918 C27.9133903,17.4540984 31.9823362,18.4131148 32.8888889,15.6639344 C33.5002849,13.8098361 31.5185185,11.5295082 28.4615385,10.5278689 C27.42849,10.1868852 26.037037,10.1442623 16.5498575,10.0163934 C4.87008547,9.86721311 4.72250712,9.86721311 2.84615385,8.63114754 C0.864387464,7.30983607 0,5.34918033 0,2.13114754 L0,0 L1.98176638,0 L3.96353276,0 L4.04786325,1.98196721 C4.15327635,4.21967213 4.42735043,4.85901639 5.65014245,5.47704918 C6.36695157,5.81803279 7.33675214,5.86065574 17.3931624,5.96721311 L28.3561254,6.09508197 L30.0005698,6.6704918 C32.1088319,7.41639344 33.5635328,8.35409836 34.9128205,9.86721311 C36.5783476,11.7 37,12.7442623 37,14.9180328 C37,17.0491803 36.557265,18.2 35.1868946,19.5639344 C32.4672365,22.3344262 28.1452991,21.9934426 23.1908832,18.6262295 C22.2421652,17.9868852 21.4410256,17.4754098 21.3777778,17.4754098 C21.3356125,17.4754098 21.3356125,17.6885246 21.3988604,17.9655738 C21.4831909,18.242623 21.3777778,18.8819672 21.2091168,19.4147541 C21.0193732,19.9262295 20.977208,20.3737705 21.0615385,20.4163934 C21.6096866,20.6081967 23.2330484,21.8442623 23.591453,22.3344262 C24.2239316,23.2508197 24.5401709,24.5721311 24.2660969,25.1262295 C24.034188,25.5311475 23.8444444,25.5737705 21.8205128,25.5737705 C20.6188034,25.5737705 19.585755,25.6377049 19.5435897,25.7442623 C19.5014245,25.8295082 19.9019943,27.6196721 20.4712251,29.7081967 C21.2301994,32.5639344 21.4410256,33.6081967 21.2723647,33.8213115 C20.9350427,34.2262295 13.0079772,34.2262295 12.6917379,33.8213115 Z" id="Path" transform="translate(18.500000, 17.062500) scale(-1, 1) rotate(-180.000000) translate(-18.500000, -17.062500) "></path>
                <path d="M12.4151601,40.8366331 C12.5219252,40.1926265 12.5646312,39.6317174 12.5432782,39.610943 C12.5005722,39.5693942 11.902688,39.2785525 11.1980389,38.9253876 C8.35808925,37.5542766 6.60714286,35.2067685 6.60714286,32.8384859 C6.60714286,31.3842773 6.90608492,30.6779474 7.65344009,30.3663313 C8.03779418,30.2209104 11.1339799,30.1585872 17.5825873,30.200136 L26.9352034,30.2624593 L27.3622635,30.7818195 C27.9815006,31.5296982 27.8320296,34.0018528 27.1060274,35.4352869 C26.4227313,36.7233003 24.7358439,38.2190577 23.0703095,39.0084852 C21.6396582,39.6732663 21.7250702,39.4655222 22.1094243,41.3767677 L22.2375423,42 L17.2195862,42 L12.2229831,42 L12.4151601,40.8366331 Z" id="Path" transform="translate(17.178571, 36.093750) scale(-1, 1) rotate(-180.000000) translate(-17.178571, -36.093750) "></path>
                <path d="M0.645866774,38.8997845 C1.00220706,37.2025862 1.29173355,35.731681 1.29173355,35.6185345 C1.29173355,35.5280172 1.62580257,35.4375 2.04895666,35.4375 L2.78390851,35.4375 L3.38523274,38.4471983 C3.6970305,40.0765086 3.96428571,41.5700431 3.96428571,41.7284483 C3.96428571,41.9321121 3.42977528,42 1.98214286,42 L0,42 L0.645866774,38.8997845 Z" id="Path" transform="translate(1.982143, 38.718750) scale(-1, 1) rotate(-180.000000) translate(-1.982143, -38.718750) "></path>
            </g>
        </g>
    </g>
</svg>